<?xml version="1.0" encoding="UTF-8" standalone="no"?>
<!-- Created with Inkscape (http://www.inkscape.org/) -->

<svg
   width="205.285mm"
   height="28.263mm"
   viewBox="0 0 205.28501 28.263001"
   version="1.1"
   id="svg5"
   inkscape:version="1.2.2 (1:1.2.2+202305151914+b0a8486541)"
   sodipodi:docname="banner_object.svg"
   inkscape:export-filename="banner.png"
   inkscape:export-xdpi="300"
   inkscape:export-ydpi="300"
   xmlns:inkscape="http://www.inkscape.org/namespaces/inkscape"
   xmlns:sodipodi="http://sodipodi.sourceforge.net/DTD/sodipodi-0.dtd"
   xmlns="http://www.w3.org/2000/svg"
   xmlns:svg="http://www.w3.org/2000/svg">
  <sodipodi:namedview
     id="namedview7"
     pagecolor="#505050"
     bordercolor="#ffffff"
     borderopacity="1"
     inkscape:showpageshadow="0"
     inkscape:pageopacity="0"
     inkscape:pagecheckerboard="1"
     inkscape:deskcolor="#505050"
     inkscape:document-units="mm"
     showgrid="false"
     inkscape:zoom="1.4039843"
     inkscape:cx="349.00676"
     inkscape:cy="297.01187"
     inkscape:window-width="1920"
     inkscape:window-height="1043"
     inkscape:window-x="0"
     inkscape:window-y="0"
     inkscape:window-maximized="1"
     inkscape:current-layer="layer1" />
  <defs
     id="defs2" />
  <g
     inkscape:label="Layer 1"
     inkscape:groupmode="layer"
     id="layer1"
     transform="translate(-13.426844,-45.502384)">
    <g
       aria-label="MInAS 
Minimum Information about an Ancient Sequence"
       id="text113"
       style="font-size:8.46667px;font-family:'Albert Sans';-inkscape-font-specification:'Albert Sans';stroke-width:0.661458;stroke-opacity:0.850739;stop-color:#000000">
      <path
         d="m 19.570092,56.488518 h -1.143 v -5.926669 h 1.303867 l 1.888068,4.436535 1.888067,-4.436535 h 1.303867 v 5.926669 h -1.143 v -3.826935 l -1.600201,3.826935 h -0.897467 l -1.600201,-3.826935 z"
         style="font-weight:bold"
         id="path599" />
      <path
         d="m 25.962423,50.561849 h 1.143001 v 5.926669 h -1.143001 z"
         style="font-weight:bold"
         id="path601" />
      <path
         d="m 28.20609,52.255183 h 0.982133 l 0.0762,0.4318 q 0.203201,-0.2286 0.491067,-0.3556 0.296334,-0.135467 0.635001,-0.135467 0.499533,0 0.846667,0.211667 0.3556,0.211667 0.541866,0.618067 0.194734,0.397933 0.194734,0.9906 v 2.472268 h -1.092201 v -2.328334 q 0,-0.491067 -0.194733,-0.736601 -0.194733,-0.245533 -0.5842,-0.245533 -0.397934,0 -0.6096,0.254 -0.203201,0.245533 -0.203201,0.7366 v 2.319868 H 28.20609 Z"
         style="font-weight:bold"
         id="path603" />
      <path
         d="m 35.716017,51.518582 h -0.3048 l -1.744134,4.969936 h -1.176867 l 2.125134,-5.926669 h 1.888067 l 2.125135,5.926669 H 37.451685 Z M 33.77715,54.16865 h 3.454401 v 0.956734 H 33.77715 Z"
         style="font-weight:bold"
         id="path605" />
      <path
         d="m 40.084809,54.812117 q 0.04233,0.237067 0.186267,0.414867 0.143934,0.1778 0.372534,0.2794 0.237066,0.09313 0.541867,0.09313 0.499533,0 0.745067,-0.220133 0.245533,-0.2286 0.245533,-0.550334 0,-0.254 -0.1524,-0.423333 -0.1524,-0.169333 -0.4318,-0.287867 -0.270934,-0.118533 -0.635,-0.2286 -0.338667,-0.1016 -0.677334,-0.220133 -0.3302,-0.118534 -0.601134,-0.296334 -0.262466,-0.1778 -0.423333,-0.4572 -0.1524,-0.287867 -0.1524,-0.719667 0,-0.541867 0.262467,-0.922867 0.270933,-0.381 0.7366,-0.575734 0.465667,-0.194733 1.075267,-0.194733 0.516467,0 0.931334,0.1524 0.414866,0.143933 0.694267,0.4318 0.287866,0.2794 0.423333,0.694267 l -1.058334,0.287867 q -0.04233,-0.186267 -0.186266,-0.321733 -0.143934,-0.135467 -0.355601,-0.211667 -0.2032,-0.08467 -0.4318,-0.08467 -0.254,-0.0085 -0.465667,0.0762 -0.211666,0.08467 -0.338666,0.245534 -0.127,0.160866 -0.127,0.372533 0,0.237067 0.143933,0.381 0.143933,0.135467 0.381,0.237067 0.237067,0.09313 0.5334,0.186267 0.347134,0.1016 0.702734,0.237066 0.364067,0.127 0.6604,0.330201 0.296334,0.194733 0.474134,0.499533 0.186266,0.3048 0.186266,0.770467 0,0.491067 -0.237066,0.889 -0.2286,0.397934 -0.694267,0.635001 -0.465667,0.237066 -1.168401,0.237066 -0.575733,0 -1.049867,-0.169333 -0.465667,-0.169333 -0.770467,-0.491067 -0.3048,-0.3302 -0.397933,-0.778933 z"
         style="font-weight:bold"
         id="path607" />
      <path
         d="m 19.570092,67.071855 h -1.143 v -5.926669 h 1.303867 l 1.888068,4.436535 1.888067,-4.436535 h 1.303867 v 5.926669 h -1.143 V 63.24492 L 22.06776,67.071855 H 21.170293 L 19.570092,63.24492 Z"
         style="font-weight:bold"
         id="path609" />
      <path
         d="m 26.165623,62.83852 h 0.626534 v 4.233335 h -0.626534 z m 0.321734,-0.846667 q -0.194734,0 -0.321734,-0.127 -0.127,-0.127 -0.127,-0.313267 0,-0.194733 0.127,-0.321733 0.127,-0.127 0.321734,-0.127 0.1778,0 0.3048,0.127 0.135467,0.127 0.135467,0.321733 0,0.186267 -0.135467,0.313267 -0.127,0.127 -0.3048,0.127 z"
         id="path611" />
      <path
         d="m 28.22302,62.83852 h 0.5842 l 0.03387,0.601134 q 0.203201,-0.313267 0.533401,-0.4826 0.3302,-0.1778 0.770467,-0.1778 0.4826,0 0.846667,0.211666 0.364066,0.2032 0.567267,0.618067 0.2032,0.4064 0.2032,1.024467 v 2.438401 h -0.635001 v -2.362201 q 0,-0.6604 -0.287866,-0.999067 -0.279401,-0.347133 -0.812801,-0.347133 -0.550333,0 -0.8636,0.364067 -0.3048,0.364066 -0.3048,1.075267 v 2.269067 h -0.635 z"
         id="path613" />
      <path
         d="m 33.116752,62.83852 h 0.626533 v 4.233335 h -0.626533 z m 0.321733,-0.846667 q -0.194733,0 -0.321733,-0.127 -0.127,-0.127 -0.127,-0.313267 0,-0.194733 0.127,-0.321733 0.127,-0.127 0.321733,-0.127 0.1778,0 0.3048,0.127 0.135467,0.127 0.135467,0.321733 0,0.186267 -0.135467,0.313267 -0.127,0.127 -0.3048,0.127 z"
         id="path615" />
      <path
         d="m 35.174148,62.83852 h 0.584201 l 0.04233,0.609601 q 0.186267,-0.304801 0.499534,-0.482601 0.321733,-0.186266 0.762,-0.186266 0.448733,0 0.8128,0.220133 0.372534,0.211667 0.575734,0.635 0.194733,-0.4318 0.592667,-0.643467 0.397933,-0.211666 0.880533,-0.211666 0.474134,0 0.838201,0.211666 0.364067,0.2032 0.567267,0.618067 0.2032,0.4064 0.2032,1.024467 v 2.438401 h -0.635001 v -2.362201 q 0,-0.6604 -0.287866,-0.999067 -0.2794,-0.347133 -0.804334,-0.347133 -0.5334,0 -0.846667,0.372533 -0.313267,0.364067 -0.313267,1.083734 v 2.252134 h -0.635 v -2.362201 q 0,-0.6604 -0.270933,-0.999067 -0.270934,-0.347133 -0.795867,-0.347133 -0.533401,0 -0.838201,0.372533 -0.296333,0.364067 -0.296333,1.083734 v 2.252134 h -0.635001 z"
         id="path617" />
      <path
         d="m 46.223152,67.071855 h -0.575733 l -0.04233,-0.6096 q -0.194733,0.321734 -0.524933,0.499534 -0.3302,0.169333 -0.770467,0.169333 -0.491067,0 -0.855134,-0.2032 -0.364067,-0.2032 -0.567267,-0.6096 -0.194733,-0.4064 -0.194733,-1.024467 V 62.83852 h 0.626534 v 2.387601 q 0,0.651934 0.2794,0.990601 0.287866,0.3302 0.821267,0.3302 0.541867,0 0.855133,-0.347134 0.321734,-0.3556 0.321734,-1.0668 V 62.83852 h 0.626533 z"
         id="path619" />
      <path
         d="m 47.518537,62.83852 h 0.584201 l 0.04233,0.609601 q 0.186267,-0.304801 0.499534,-0.482601 0.321733,-0.186266 0.762,-0.186266 0.448733,0 0.8128,0.220133 0.372534,0.211667 0.575734,0.635 0.194733,-0.4318 0.592667,-0.643467 0.397933,-0.211666 0.880533,-0.211666 0.474134,0 0.838201,0.211666 0.364066,0.2032 0.567267,0.618067 0.2032,0.4064 0.2032,1.024467 v 2.438401 h -0.635001 v -2.362201 q 0,-0.6604 -0.287866,-0.999067 -0.279401,-0.347133 -0.804334,-0.347133 -0.5334,0 -0.846667,0.372533 -0.313267,0.364067 -0.313267,1.083734 v 2.252134 h -0.635 v -2.362201 q 0,-0.6604 -0.270934,-0.999067 -0.270933,-0.347133 -0.795867,-0.347133 -0.5334,0 -0.8382,0.372533 -0.296333,0.364067 -0.296333,1.083734 v 2.252134 h -0.635001 z"
         id="path621" />
      <path
         d="m 57.39913,61.145186 h 1.143001 v 5.926669 H 57.39913 Z"
         style="font-weight:bold"
         id="path623" />
      <path
         d="m 59.642798,62.83852 h 0.982134 l 0.0762,0.4318 q 0.2032,-0.2286 0.491067,-0.3556 0.296333,-0.135466 0.635,-0.135466 0.499534,0 0.846667,0.211666 0.3556,0.211667 0.541867,0.618067 0.194733,0.397934 0.194733,0.990601 v 2.472267 h -1.0922 v -2.328334 q 0,-0.491067 -0.194734,-0.7366 -0.194733,-0.245534 -0.5842,-0.245534 -0.397933,0 -0.6096,0.254 -0.2032,0.245534 -0.2032,0.736601 v 2.319867 h -1.083734 z"
         style="font-weight:bold"
         id="path625" />
      <path
         d="m 64.748188,62.338987 q 0,-0.465667 0.152401,-0.787401 0.1524,-0.321733 0.4826,-0.465666 0.338667,-0.1524 0.897467,-0.110067 v 0.567267 q -0.508,-0.04233 -0.702734,0.169333 -0.194733,0.2032 -0.194733,0.626534 v 0.499533 h 0.931333 v 0.592667 h -0.931333 v 3.640668 H 64.748188 V 63.431187 H 64.155522 V 62.83852 h 0.592666 z"
         id="path627" />
      <path
         d="m 69.006916,67.131122 q -0.601133,0 -1.075267,-0.262467 -0.474133,-0.262467 -0.745067,-0.745067 -0.270933,-0.491067 -0.270933,-1.159934 0,-0.677333 0.270933,-1.1684 0.279401,-0.491067 0.753534,-0.753534 0.4826,-0.262466 1.083734,-0.262466 0.601133,0 1.075267,0.262466 0.4826,0.262467 0.753534,0.753534 0.2794,0.4826 0.2794,1.151467 0,0.677334 -0.2794,1.168401 -0.279401,0.491066 -0.762001,0.753533 -0.4826,0.262467 -1.083734,0.262467 z m -0.0085,-0.601134 q 0.372533,0 0.702733,-0.160866 0.330201,-0.169334 0.533401,-0.516467 0.211666,-0.3556 0.211666,-0.897467 0,-0.550334 -0.2032,-0.897467 -0.2032,-0.347134 -0.5334,-0.508 -0.321733,-0.169334 -0.694267,-0.169334 -0.372533,0 -0.694267,0.169334 -0.321733,0.160866 -0.524933,0.516466 -0.194734,0.347134 -0.194734,0.889001 0,0.550333 0.194734,0.897467 0.194733,0.347133 0.508,0.516467 0.321733,0.160866 0.694267,0.160866 z"
         id="path629" />
      <path
         d="m 72.173439,62.83852 h 0.5842 l 0.03387,0.618067 q 0.169333,-0.2286 0.4064,-0.389467 0.245533,-0.160866 0.5334,-0.220133 0.296334,-0.06773 0.626534,-0.0085 v 0.635001 q -0.3556,-0.06773 -0.643467,0 -0.2794,0.06773 -0.4826,0.254 -0.2032,0.186266 -0.313267,0.474133 -0.110067,0.2794 -0.110067,0.651934 v 2.218267 h -0.635 z"
         id="path631" />
      <path
         d="m 75.221428,62.83852 h 0.5842 l 0.04233,0.609601 q 0.186267,-0.304801 0.499534,-0.482601 0.321733,-0.186266 0.762,-0.186266 0.448734,0 0.812801,0.220133 0.372533,0.211667 0.575733,0.635 0.194734,-0.4318 0.592667,-0.643467 0.397934,-0.211666 0.880534,-0.211666 0.474133,0 0.8382,0.211666 0.364067,0.2032 0.567267,0.618067 0.2032,0.4064 0.2032,1.024467 v 2.438401 h -0.635 v -2.362201 q 0,-0.6604 -0.287867,-0.999067 -0.2794,-0.347133 -0.804334,-0.347133 -0.5334,0 -0.846667,0.372533 -0.313266,0.364067 -0.313266,1.083734 v 2.252134 h -0.635001 v -2.362201 q 0,-0.6604 -0.270933,-0.999067 -0.270934,-0.347133 -0.795867,-0.347133 -0.5334,0 -0.8382,0.372533 -0.296334,0.364067 -0.296334,1.083734 v 2.252134 h -0.635 z"
         id="path633" />
      <path
         d="m 85.457628,67.071855 -0.0508,-0.762 q -0.1778,0.389467 -0.524934,0.6096 -0.347133,0.211667 -0.880534,0.211667 -0.4572,0 -0.778933,-0.143933 -0.321734,-0.143934 -0.499534,-0.406401 -0.169333,-0.270933 -0.169333,-0.635 0,-0.5334 0.397933,-0.872067 0.397934,-0.347133 1.151467,-0.423333 l 1.303868,-0.143934 v -0.338667 q 0,-0.3556 -0.262467,-0.567266 -0.262467,-0.220134 -0.7112,-0.220134 -0.440267,0 -0.736601,0.2032 -0.287867,0.2032 -0.397933,0.5842 l -0.575734,-0.2032 q 0.169334,-0.5588 0.618067,-0.872067 0.4572,-0.313266 1.109134,-0.313266 0.753534,0 1.1684,0.389466 0.423334,0.381001 0.423334,1.041401 v 2.861734 z m -0.0508,-2.023534 -1.312334,0.1524 q -0.423334,0.0508 -0.643467,0.237067 -0.220134,0.1778 -0.220134,0.474134 0,0.296333 0.211667,0.474133 0.220134,0.1778 0.626534,0.1778 0.465667,0 0.762,-0.186267 0.296333,-0.186266 0.4318,-0.499533 0.143934,-0.321734 0.143934,-0.694267 z"
         id="path635" />
      <path
         d="m 87.548899,62.83852 v -1.185334 h 0.635 v 1.185334 h 1.126067 v 0.592667 h -1.126067 v 2.277534 q 0,0.389467 0.160867,0.567267 0.169333,0.1778 0.423333,0.211667 0.262467,0.03387 0.541867,0 v 0.550334 q -0.3302,0.0762 -0.651933,0.04233 -0.313267,-0.03387 -0.567267,-0.186267 -0.245534,-0.160866 -0.397934,-0.448733 -0.143933,-0.287867 -0.143933,-0.736601 v -2.277534 h -0.635 V 62.83852 Z"
         id="path637" />
      <path
         d="m 90.385228,62.83852 h 0.626534 v 4.233335 h -0.626534 z m 0.321734,-0.846667 q -0.194734,0 -0.321734,-0.127 -0.127,-0.127 -0.127,-0.313267 0,-0.194733 0.127,-0.321733 0.127,-0.127 0.321734,-0.127 0.1778,0 0.3048,0.127 0.135467,0.127 0.135467,0.321733 0,0.186267 -0.135467,0.313267 -0.127,0.127 -0.3048,0.127 z"
         id="path639" />
      <path
         d="m 94.271424,67.131122 q -0.601134,0 -1.075267,-0.262467 -0.474134,-0.262467 -0.745067,-0.745067 -0.270934,-0.491067 -0.270934,-1.159934 0,-0.677333 0.270934,-1.1684 0.2794,-0.491067 0.753533,-0.753534 0.482601,-0.262466 1.083734,-0.262466 0.601134,0 1.075267,0.262466 0.4826,0.262467 0.753534,0.753534 0.2794,0.4826 0.2794,1.151467 0,0.677334 -0.2794,1.168401 -0.2794,0.491066 -0.762,0.753533 -0.482601,0.262467 -1.083734,0.262467 z m -0.0085,-0.601134 q 0.372534,0 0.702734,-0.160866 0.3302,-0.169334 0.5334,-0.516467 0.211667,-0.3556 0.211667,-0.897467 0,-0.550334 -0.2032,-0.897467 -0.2032,-0.347134 -0.533401,-0.508 -0.321733,-0.169334 -0.694267,-0.169334 -0.372533,0 -0.694266,0.169334 -0.321734,0.160866 -0.524934,0.516466 -0.194733,0.347134 -0.194733,0.889001 0,0.550333 0.194733,0.897467 0.194733,0.347133 0.508,0.516467 0.321734,0.160866 0.694267,0.160866 z"
         id="path641" />
      <path
         d="m 97.437939,62.83852 h 0.5842 l 0.03387,0.601134 q 0.2032,-0.313267 0.5334,-0.4826 0.3302,-0.1778 0.770467,-0.1778 0.4826,0 0.846667,0.211666 0.36407,0.2032 0.56727,0.618067 0.2032,0.4064 0.2032,1.024467 v 2.438401 h -0.635 v -2.362201 q 0,-0.6604 -0.28787,-0.999067 -0.2794,-0.347133 -0.812801,-0.347133 -0.550333,0 -0.8636,0.364067 -0.3048,0.364066 -0.3048,1.075267 v 2.269067 h -0.635 z"
         id="path643" />
      <path
         d="m 107.2254,67.071855 -0.0508,-0.762 q -0.1778,0.389467 -0.52494,0.6096 -0.34713,0.211667 -0.88053,0.211667 -0.4572,0 -0.77893,-0.143933 -0.32174,-0.143934 -0.49954,-0.406401 -0.16933,-0.270933 -0.16933,-0.635 0,-0.5334 0.39793,-0.872067 0.39794,-0.347133 1.15147,-0.423333 l 1.30387,-0.143934 v -0.338667 q 0,-0.3556 -0.26247,-0.567266 -0.26247,-0.220134 -0.7112,-0.220134 -0.44027,0 -0.7366,0.2032 -0.28787,0.2032 -0.39793,0.5842 l -0.57574,-0.2032 q 0.16934,-0.5588 0.61807,-0.872067 0.4572,-0.313266 1.10913,-0.313266 0.75354,0 1.1684,0.389466 0.42334,0.381001 0.42334,1.041401 v 2.861734 z m -0.0508,-2.023534 -1.31234,0.1524 q -0.42333,0.0508 -0.64346,0.237067 -0.22014,0.1778 -0.22014,0.474134 0,0.296333 0.21167,0.474133 0.22013,0.1778 0.62653,0.1778 0.46567,0 0.762,-0.186267 0.29634,-0.186266 0.4318,-0.499533 0.14394,-0.321734 0.14394,-0.694267 z"
         id="path645" />
      <path
         d="m 109.613,63.693654 q 0.18627,-0.389467 0.5842,-0.651934 0.39793,-0.262466 1.00754,-0.262466 0.5842,0 1.016,0.270933 0.44026,0.270933 0.67733,0.762 0.24553,0.482601 0.24553,1.143001 0,0.6604 -0.24553,1.151467 -0.24553,0.491067 -0.6858,0.762 -0.4318,0.262467 -1.00753,0.262467 -0.57574,0 -0.95674,-0.245533 -0.381,-0.245534 -0.57573,-0.601134 l -0.0423,0.7874 h -0.5842 v -6.096002 h 0.635 v 2.726268 z m 2.8448,1.261534 q 0,-0.728134 -0.381,-1.151467 -0.37253,-0.4318 -1.00753,-0.4318 -0.39794,0 -0.71967,0.194733 -0.31327,0.186267 -0.49107,0.541867 -0.1778,0.347133 -0.1778,0.846667 0,0.499533 0.1778,0.855133 0.1778,0.355601 0.49107,0.541867 0.32173,0.186267 0.71967,0.186267 0.635,0 1.00753,-0.423333 0.381,-0.431801 0.381,-1.159934 z"
         id="path647" />
      <path
         d="m 116.00533,67.131122 q -0.60114,0 -1.07527,-0.262467 -0.47413,-0.262467 -0.74507,-0.745067 -0.27093,-0.491067 -0.27093,-1.159934 0,-0.677333 0.27093,-1.1684 0.2794,-0.491067 0.75354,-0.753534 0.4826,-0.262466 1.08373,-0.262466 0.60113,0 1.07527,0.262466 0.4826,0.262467 0.75353,0.753534 0.2794,0.4826 0.2794,1.151467 0,0.677334 -0.2794,1.168401 -0.2794,0.491066 -0.762,0.753533 -0.4826,0.262467 -1.08373,0.262467 z m -0.008,-0.601134 q 0.37253,0 0.70273,-0.160866 0.3302,-0.169334 0.5334,-0.516467 0.21167,-0.3556 0.21167,-0.897467 0,-0.550334 -0.2032,-0.897467 -0.2032,-0.347134 -0.5334,-0.508 -0.32173,-0.169334 -0.69427,-0.169334 -0.37253,0 -0.69426,0.169334 -0.32174,0.160866 -0.52494,0.516466 -0.19473,0.347134 -0.19473,0.889001 0,0.550333 0.19473,0.897467 0.19474,0.347133 0.508,0.516467 0.32174,0.160866 0.69427,0.160866 z"
         id="path649" />
      <path
         d="m 122.63472,67.071855 h -0.57574 l -0.0423,-0.6096 q -0.19473,0.321734 -0.52493,0.499534 -0.3302,0.169333 -0.77047,0.169333 -0.49107,0 -0.85513,-0.2032 -0.36407,-0.2032 -0.56727,-0.6096 -0.19474,-0.4064 -0.19474,-1.024467 V 62.83852 h 0.62654 v 2.387601 q 0,0.651934 0.2794,0.990601 0.28787,0.3302 0.82127,0.3302 0.54186,0 0.85513,-0.347134 0.32173,-0.3556 0.32173,-1.0668 V 62.83852 h 0.62654 z"
         id="path651" />
      <path
         d="m 124.20104,62.83852 v -1.185334 h 0.635 v 1.185334 h 1.12606 v 0.592667 h -1.12606 v 2.277534 q 0,0.389467 0.16086,0.567267 0.16934,0.1778 0.42334,0.211667 0.26246,0.03387 0.54186,0 v 0.550334 q -0.3302,0.0762 -0.65193,0.04233 -0.31327,-0.03387 -0.56727,-0.186267 -0.24553,-0.160866 -0.39793,-0.448733 -0.14393,-0.287867 -0.14393,-0.736601 v -2.277534 h -0.635 V 62.83852 Z"
         id="path653" />
      <path
         d="m 131.93108,67.071855 -0.0508,-0.762 q -0.1778,0.389467 -0.52493,0.6096 -0.34713,0.211667 -0.88053,0.211667 -0.4572,0 -0.77894,-0.143933 -0.32173,-0.143934 -0.49953,-0.406401 -0.16933,-0.270933 -0.16933,-0.635 0,-0.5334 0.39793,-0.872067 0.39793,-0.347133 1.15147,-0.423333 l 1.30386,-0.143934 v -0.338667 q 0,-0.3556 -0.26246,-0.567266 -0.26247,-0.220134 -0.7112,-0.220134 -0.44027,0 -0.7366,0.2032 -0.28787,0.2032 -0.39794,0.5842 l -0.57573,-0.2032 q 0.16933,-0.5588 0.61807,-0.872067 0.4572,-0.313266 1.10913,-0.313266 0.75353,0 1.1684,0.389466 0.42334,0.381001 0.42334,1.041401 v 2.861734 z m -0.0508,-2.023534 -1.31233,0.1524 q -0.42333,0.0508 -0.64347,0.237067 -0.22013,0.1778 -0.22013,0.474134 0,0.296333 0.21167,0.474133 0.22013,0.1778 0.62653,0.1778 0.46567,0 0.762,-0.186267 0.29633,-0.186266 0.4318,-0.499533 0.14393,-0.321734 0.14393,-0.694267 z"
         id="path655" />
      <path
         d="m 133.75142,62.83852 h 0.5842 l 0.0339,0.601134 q 0.2032,-0.313267 0.5334,-0.4826 0.3302,-0.1778 0.77047,-0.1778 0.4826,0 0.84666,0.211666 0.36407,0.2032 0.56727,0.618067 0.2032,0.4064 0.2032,1.024467 v 2.438401 h -0.635 v -2.362201 q 0,-0.6604 -0.28787,-0.999067 -0.2794,-0.347133 -0.8128,-0.347133 -0.55033,0 -0.8636,0.364067 -0.3048,0.364066 -0.3048,1.075267 v 2.269067 h -0.635 z"
         id="path657" />
      <path
         d="m 143.52195,62.10192 h -0.3048 l -1.74414,4.969935 h -1.17686 l 2.12513,-5.926669 h 1.88807 l 2.12513,5.926669 h -1.17687 z m -1.93887,2.650068 h 3.4544 v 0.956733 h -3.4544 z"
         style="font-weight:bold"
         id="path659" />
      <path
         d="m 147.1372,62.83852 h 0.5842 l 0.0339,0.601134 q 0.2032,-0.313267 0.5334,-0.4826 0.3302,-0.1778 0.77047,-0.1778 0.4826,0 0.84666,0.211666 0.36407,0.2032 0.56727,0.618067 0.2032,0.4064 0.2032,1.024467 v 2.438401 h -0.635 v -2.362201 q 0,-0.6604 -0.28787,-0.999067 -0.2794,-0.347133 -0.8128,-0.347133 -0.55033,0 -0.8636,0.364067 -0.3048,0.364066 -0.3048,1.075267 v 2.269067 h -0.635 z"
         id="path661" />
      <path
         d="m 153.70734,67.131122 q -0.61806,0 -1.08373,-0.270933 -0.46567,-0.270934 -0.72813,-0.753534 -0.254,-0.491067 -0.254,-1.134534 0,-0.651933 0.254,-1.143 0.26246,-0.499534 0.72813,-0.770467 0.46567,-0.2794 1.08373,-0.2794 0.65194,0 1.143,0.3048 0.49107,0.296333 0.7112,0.829733 l -0.5842,0.2032 q -0.127,-0.338666 -0.46566,-0.5334 -0.3302,-0.2032 -0.77047,-0.2032 -0.4318,0 -0.75353,0.194734 -0.31327,0.194733 -0.49107,0.550333 -0.16933,0.3556 -0.16933,0.8382 0,0.711201 0.381,1.143001 0.381,0.423333 1.016,0.423333 0.4318,0 0.77046,-0.194733 0.33867,-0.194733 0.49954,-0.524934 l 0.57573,0.203201 q -0.2286,0.524933 -0.71967,0.821267 -0.49106,0.296333 -1.143,0.296333 z"
         id="path663" />
      <path
         d="m 156.7384,62.83852 h 0.62653 v 4.233335 h -0.62653 z m 0.32173,-0.846667 q -0.19473,0 -0.32173,-0.127 -0.127,-0.127 -0.127,-0.313267 0,-0.194733 0.127,-0.321733 0.127,-0.127 0.32173,-0.127 0.1778,0 0.3048,0.127 0.13547,0.127 0.13547,0.321733 0,0.186267 -0.13547,0.313267 -0.127,0.127 -0.3048,0.127 z"
         id="path665" />
      <path
         d="m 160.5738,67.131122 q -0.59266,0 -1.05833,-0.287867 -0.4572,-0.287867 -0.71967,-0.7874 -0.26246,-0.499534 -0.26246,-1.143001 0,-0.618066 0.26246,-1.100667 0.26247,-0.4826 0.71967,-0.753533 0.4572,-0.2794 1.0414,-0.2794 0.57573,0 1.02447,0.254 0.4572,0.254 0.7112,0.702733 0.254,0.448734 0.23706,1.024467 0,0.09313 -0.008,0.194734 -0.008,0.1016 -0.0169,0.220133 h -3.2766 q 0.0169,0.397934 0.19474,0.702734 0.1778,0.3048 0.46566,0.4826 0.29634,0.169333 0.66887,0.169333 0.49107,0 0.82973,-0.186266 0.34714,-0.186267 0.49954,-0.533401 l 0.55033,0.220134 q -0.254,0.5334 -0.7366,0.821267 -0.4826,0.2794 -1.12607,0.2794 z m 1.26154,-2.506134 q 0.008,-0.364067 -0.16087,-0.643467 -0.16087,-0.2794 -0.4572,-0.440267 -0.29633,-0.160867 -0.6858,-0.160867 -0.33867,0 -0.61807,0.160867 -0.2794,0.160867 -0.46566,0.448733 -0.1778,0.279401 -0.21167,0.635001 z"
         id="path667" />
      <path
         d="m 163.571,62.83852 h 0.5842 l 0.0339,0.601134 q 0.2032,-0.313267 0.5334,-0.4826 0.3302,-0.1778 0.77047,-0.1778 0.4826,0 0.84667,0.211666 0.36406,0.2032 0.56726,0.618067 0.2032,0.4064 0.2032,1.024467 v 2.438401 h -0.635 v -2.362201 q 0,-0.6604 -0.28786,-0.999067 -0.2794,-0.347133 -0.8128,-0.347133 -0.55034,0 -0.8636,0.364067 -0.3048,0.364066 -0.3048,1.075267 v 2.269067 h -0.635 z"
         id="path669" />
      <path
         d="m 168.60867,62.83852 v -1.185334 h 0.635 v 1.185334 h 1.12606 v 0.592667 h -1.12606 v 2.277534 q 0,0.389467 0.16086,0.567267 0.16934,0.1778 0.42334,0.211667 0.26246,0.03387 0.54186,0 v 0.550334 q -0.3302,0.0762 -0.65193,0.04233 -0.31327,-0.03387 -0.56727,-0.186267 -0.24553,-0.160866 -0.39793,-0.448733 -0.14393,-0.287867 -0.14393,-0.736601 v -2.277534 h -0.635 V 62.83852 Z"
         id="path671" />
      <path
         d="m 174.44217,65.395455 q 0.0423,0.237066 0.18627,0.414866 0.14393,0.177801 0.37253,0.279401 0.23707,0.09313 0.54187,0.09313 0.49953,0 0.74507,-0.220133 0.24553,-0.228601 0.24553,-0.550334 0,-0.254 -0.1524,-0.423334 -0.1524,-0.169333 -0.4318,-0.287866 -0.27093,-0.118534 -0.635,-0.2286 -0.33867,-0.1016 -0.67733,-0.220134 -0.3302,-0.118533 -0.60114,-0.296333 -0.26246,-0.1778 -0.42333,-0.4572 -0.1524,-0.287867 -0.1524,-0.719667 0,-0.541867 0.26247,-0.922867 0.27093,-0.381001 0.7366,-0.575734 0.46566,-0.194733 1.07526,-0.194733 0.51647,0 0.93134,0.1524 0.41487,0.143933 0.69427,0.4318 0.28786,0.2794 0.42333,0.694267 l -1.05834,0.287867 q -0.0423,-0.186267 -0.18626,-0.321734 -0.14394,-0.135467 -0.3556,-0.211667 -0.2032,-0.08467 -0.4318,-0.08467 -0.254,-0.0085 -0.46567,0.0762 -0.21167,0.08467 -0.33867,0.245533 -0.127,0.160867 -0.127,0.372534 0,0.237066 0.14394,0.381 0.14393,0.135466 0.381,0.237066 0.23706,0.09313 0.5334,0.186267 0.34713,0.1016 0.70273,0.237067 0.36407,0.127 0.6604,0.3302 0.29634,0.194734 0.47414,0.499534 0.18626,0.3048 0.18626,0.770467 0,0.491066 -0.23706,0.889 -0.2286,0.397933 -0.69427,0.635 -0.46567,0.237067 -1.1684,0.237067 -0.57574,0 -1.04987,-0.169333 -0.46567,-0.169334 -0.77047,-0.491067 -0.3048,-0.3302 -0.39793,-0.778934 z"
         style="font-weight:bold"
         id="path673" />
      <path
         d="m 180.47044,67.131122 q -0.59267,0 -1.05833,-0.287867 -0.4572,-0.287867 -0.71967,-0.7874 -0.26247,-0.499534 -0.26247,-1.143001 0,-0.618066 0.26247,-1.100667 0.26247,-0.4826 0.71967,-0.753533 0.4572,-0.2794 1.0414,-0.2794 0.57573,0 1.02446,0.254 0.4572,0.254 0.7112,0.702733 0.254,0.448734 0.23707,1.024467 0,0.09313 -0.008,0.194734 -0.008,0.1016 -0.0169,0.220133 h -3.2766 q 0.0169,0.397934 0.19473,0.702734 0.1778,0.3048 0.46567,0.4826 0.29633,0.169333 0.66887,0.169333 0.49106,0 0.82973,-0.186266 0.34713,-0.186267 0.49953,-0.533401 l 0.55034,0.220134 q -0.254,0.5334 -0.7366,0.821267 -0.4826,0.2794 -1.12607,0.2794 z m 1.26153,-2.506134 q 0.008,-0.364067 -0.16086,-0.643467 -0.16087,-0.2794 -0.4572,-0.440267 -0.29634,-0.160867 -0.6858,-0.160867 -0.33867,0 -0.61807,0.160867 -0.2794,0.160867 -0.46567,0.448733 -0.1778,0.279401 -0.21166,0.635001 z"
         id="path675" />
      <path
         d="m 186.73578,66.216722 q -0.19473,0.389466 -0.59266,0.651933 -0.39794,0.262467 -0.99907,0.262467 -0.5842,0 -1.02447,-0.270933 -0.4318,-0.270934 -0.67733,-0.753534 -0.23707,-0.491067 -0.23707,-1.151467 0,-0.668867 0.23707,-1.151467 0.24553,-0.491067 0.67733,-0.753534 0.44027,-0.270933 1.02447,-0.270933 0.56727,0 0.94827,0.245533 0.38946,0.245533 0.5842,0.601134 l 0.0423,-0.787401 h 0.5842 v 5.926669 h -0.635 v -2.556934 z m -2.8448,-1.261534 q 0,0.728133 0.37253,1.159934 0.381,0.423333 1.016,0.423333 0.39794,0 0.71121,-0.186267 0.31326,-0.194733 0.49106,-0.550333 0.18627,-0.3556 0.18627,-0.846667 0,-0.499534 -0.18627,-0.855134 -0.1778,-0.3556 -0.49106,-0.541867 -0.31327,-0.186266 -0.71121,-0.186266 -0.64346,0 -1.016,0.4318 -0.37253,0.423333 -0.37253,1.151467 z"
         id="path677" />
      <path
         d="m 192.0613,67.071855 h -0.57573 l -0.0423,-0.6096 q -0.19473,0.321734 -0.52493,0.499534 -0.3302,0.169333 -0.77047,0.169333 -0.49107,0 -0.85513,-0.2032 -0.36407,-0.2032 -0.56727,-0.6096 -0.19473,-0.4064 -0.19473,-1.024467 V 62.83852 h 0.62653 v 2.387601 q 0,0.651934 0.2794,0.990601 0.28787,0.3302 0.82127,0.3302 0.54186,0 0.85513,-0.347134 0.32174,-0.3556 0.32174,-1.0668 V 62.83852 h 0.62653 z"
         id="path679" />
      <path
         d="m 195.13469,67.131122 q -0.59267,0 -1.05834,-0.287867 -0.4572,-0.287867 -0.71966,-0.7874 -0.26247,-0.499534 -0.26247,-1.143001 0,-0.618066 0.26247,-1.100667 0.26246,-0.4826 0.71966,-0.753533 0.4572,-0.2794 1.0414,-0.2794 0.57574,0 1.02447,0.254 0.4572,0.254 0.7112,0.702733 0.254,0.448734 0.23707,1.024467 0,0.09313 -0.008,0.194734 -0.008,0.1016 -0.0169,0.220133 h -3.2766 q 0.0169,0.397934 0.19473,0.702734 0.1778,0.3048 0.46567,0.4826 0.29633,0.169333 0.66886,0.169333 0.49107,0 0.82974,-0.186266 0.34713,-0.186267 0.49953,-0.533401 l 0.55033,0.220134 q -0.254,0.5334 -0.7366,0.821267 -0.4826,0.2794 -1.12606,0.2794 z m 1.26153,-2.506134 q 0.008,-0.364067 -0.16087,-0.643467 -0.16086,-0.2794 -0.4572,-0.440267 -0.29633,-0.160867 -0.6858,-0.160867 -0.33866,0 -0.61806,0.160867 -0.2794,0.160867 -0.46567,0.448733 -0.1778,0.279401 -0.21167,0.635001 z"
         id="path681" />
      <path
         d="m 198.13188,62.83852 h 0.5842 l 0.0339,0.601134 q 0.2032,-0.313267 0.5334,-0.4826 0.33021,-0.1778 0.77047,-0.1778 0.4826,0 0.84667,0.211666 0.36407,0.2032 0.56727,0.618067 0.2032,0.4064 0.2032,1.024467 v 2.438401 h -0.635 v -2.362201 q 0,-0.6604 -0.28787,-0.999067 -0.2794,-0.347133 -0.8128,-0.347133 -0.55034,0 -0.8636,0.364067 -0.3048,0.364066 -0.3048,1.075267 v 2.269067 h -0.635 z"
         id="path683" />
      <path
         d="m 204.70202,67.131122 q -0.61807,0 -1.08374,-0.270933 -0.46566,-0.270934 -0.72813,-0.753534 -0.254,-0.491067 -0.254,-1.134534 0,-0.651933 0.254,-1.143 0.26247,-0.499534 0.72813,-0.770467 0.46567,-0.2794 1.08374,-0.2794 0.65193,0 1.143,0.3048 0.49106,0.296333 0.7112,0.829733 l -0.5842,0.2032 q -0.127,-0.338666 -0.46567,-0.5334 -0.3302,-0.2032 -0.77047,-0.2032 -0.4318,0 -0.75353,0.194734 -0.31327,0.194733 -0.49107,0.550333 -0.16933,0.3556 -0.16933,0.8382 0,0.711201 0.381,1.143001 0.381,0.423333 1.016,0.423333 0.4318,0 0.77047,-0.194733 0.33866,-0.194733 0.49953,-0.524934 l 0.57573,0.203201 q -0.2286,0.524933 -0.71966,0.821267 -0.49107,0.296333 -1.143,0.296333 z"
         id="path685" />
      <path
         d="m 209.38408,67.131122 q -0.59267,0 -1.05834,-0.287867 -0.4572,-0.287867 -0.71966,-0.7874 -0.26247,-0.499534 -0.26247,-1.143001 0,-0.618066 0.26247,-1.100667 0.26246,-0.4826 0.71966,-0.753533 0.4572,-0.2794 1.0414,-0.2794 0.57574,0 1.02447,0.254 0.4572,0.254 0.7112,0.702733 0.254,0.448734 0.23707,1.024467 0,0.09313 -0.008,0.194734 -0.008,0.1016 -0.0169,0.220133 h -3.2766 q 0.0169,0.397934 0.19473,0.702734 0.1778,0.3048 0.46567,0.4826 0.29633,0.169333 0.66886,0.169333 0.49107,0 0.82974,-0.186266 0.34713,-0.186267 0.49953,-0.533401 l 0.55033,0.220134 q -0.254,0.5334 -0.7366,0.821267 -0.4826,0.2794 -1.12606,0.2794 z m 1.26153,-2.506134 q 0.008,-0.364067 -0.16087,-0.643467 -0.16086,-0.2794 -0.4572,-0.440267 -0.29633,-0.160867 -0.6858,-0.160867 -0.33866,0 -0.61806,0.160867 -0.2794,0.160867 -0.46567,0.448733 -0.1778,0.279401 -0.21167,0.635001 z"
         id="path687" />
    </g>
  </g>
</svg>
